<?xml version="1.0" encoding="UTF-8" standalone="no"?>
<!DOCTYPE svg PUBLIC "-//W3C//DTD SVG 1.1//EN"
 "http://www.w3.org/Graphics/SVG/1.1/DTD/svg11.dtd">
<!-- Generated by graphviz version 2.44.1 (20200629.0846)
 -->
<!-- Pages: 1 -->
<svg width="410pt" height="692pt"
 viewBox="0.00 0.00 409.69 692.00" xmlns="http://www.w3.org/2000/svg" xmlns:xlink="http://www.w3.org/1999/xlink">
<g id="graph0" class="graph" transform="scale(1 1) rotate(0) translate(4 688)">
<polygon fill="white" stroke="transparent" points="-4,4 -4,-688 405.69,-688 405.69,4 -4,4"/>
<!-- key/output -->
<g id="node1" class="node">
<title>key/output</title>
<ellipse fill="none" stroke="black" cx="48.1" cy="-234" rx="48.19" ry="18"/>
<text text-anchor="middle" x="48.1" y="-230.3" font-family="Times,serif" font-size="14.00">key/output</text>
</g>
<!-- instance/config/input -->
<g id="node9" class="node">
<title>instance/config/input</title>
<ellipse fill="none" stroke="black" cx="227.1" cy="-162" rx="84.49" ry="18"/>
<text text-anchor="middle" x="227.1" y="-158.3" font-family="Times,serif" font-size="14.00">instance/config/input</text>
</g>
<!-- key/output&#45;&gt;instance/config/input -->
<g id="edge1" class="edge">
<title>key/output&#45;&gt;instance/config/input</title>
<path fill="none" stroke="green" d="M80.1,-220.49C107.62,-209.72 147.72,-194.04 179.09,-181.77"/>
<polygon fill="green" stroke="green" points="180.48,-184.99 188.52,-178.09 177.93,-178.47 180.48,-184.99"/>
</g>
<!-- security_group/current/input -->
<g id="node2" class="node">
<title>security_group/current/input</title>
<ellipse fill="none" stroke="black" cx="226.1" cy="-522" rx="111.28" ry="18"/>
<text text-anchor="middle" x="226.1" y="-518.3" font-family="Times,serif" font-size="14.00">security_group/current/input</text>
</g>
<!-- security_group/current/task/delete -->
<g id="node3" class="node">
<title>security_group/current/task/delete</title>
<ellipse fill="none" stroke="black" cx="216.1" cy="-450" rx="130.78" ry="18"/>
<text text-anchor="middle" x="216.1" y="-446.3" font-family="Times,serif" font-size="14.00">security_group/current/task/delete</text>
</g>
<!-- security_group/current/input&#45;&gt;security_group/current/task/delete -->
<g id="edge2" class="edge">
<title>security_group/current/input&#45;&gt;security_group/current/task/delete</title>
<path fill="none" stroke="green" d="M223.62,-503.7C222.52,-495.98 221.2,-486.71 219.97,-478.11"/>
<polygon fill="green" stroke="green" points="223.42,-477.51 218.54,-468.1 216.49,-478.5 223.42,-477.51"/>
</g>
<!-- security_group/config/input -->
<g id="node4" class="node">
<title>security_group/config/input</title>
<ellipse fill="none" stroke="black" cx="217.1" cy="-378" rx="108.58" ry="18"/>
<text text-anchor="middle" x="217.1" y="-374.3" font-family="Times,serif" font-size="14.00">security_group/config/input</text>
</g>
<!-- security_group/current/task/delete&#45;&gt;security_group/config/input -->
<g id="edge3" class="edge">
<title>security_group/current/task/delete&#45;&gt;security_group/config/input</title>
<path fill="none" stroke="green" d="M216.34,-431.7C216.45,-423.98 216.59,-414.71 216.71,-406.11"/>
<polygon fill="green" stroke="green" points="220.21,-406.15 216.85,-396.1 213.21,-406.05 220.21,-406.15"/>
</g>
<!-- security_group/config/task/create -->
<g id="node6" class="node">
<title>security_group/config/task/create</title>
<ellipse fill="none" stroke="black" cx="218.1" cy="-306" rx="128.08" ry="18"/>
<text text-anchor="middle" x="218.1" y="-302.3" font-family="Times,serif" font-size="14.00">security_group/config/task/create</text>
</g>
<!-- security_group/config/input&#45;&gt;security_group/config/task/create -->
<g id="edge4" class="edge">
<title>security_group/config/input&#45;&gt;security_group/config/task/create</title>
<path fill="none" stroke="green" d="M217.34,-359.7C217.45,-351.98 217.59,-342.71 217.71,-334.11"/>
<polygon fill="green" stroke="green" points="221.21,-334.15 217.85,-324.1 214.21,-334.05 221.21,-334.15"/>
</g>
<!-- security_group/config/output -->
<g id="node5" class="node">
<title>security_group/config/output</title>
<ellipse fill="none" stroke="black" cx="227.1" cy="-234" rx="112.38" ry="18"/>
<text text-anchor="middle" x="227.1" y="-230.3" font-family="Times,serif" font-size="14.00">security_group/config/output</text>
</g>
<!-- security_group/config/output&#45;&gt;instance/config/input -->
<g id="edge5" class="edge">
<title>security_group/config/output&#45;&gt;instance/config/input</title>
<path fill="none" stroke="green" d="M227.1,-215.7C227.1,-207.98 227.1,-198.71 227.1,-190.11"/>
<polygon fill="green" stroke="green" points="230.6,-190.1 227.1,-180.1 223.6,-190.1 230.6,-190.1"/>
</g>
<!-- security_group/config/task/create&#45;&gt;security_group/config/output -->
<g id="edge6" class="edge">
<title>security_group/config/task/create&#45;&gt;security_group/config/output</title>
<path fill="none" stroke="green" d="M220.32,-287.7C221.31,-279.98 222.5,-270.71 223.61,-262.11"/>
<polygon fill="green" stroke="green" points="227.09,-262.47 224.9,-252.1 220.15,-261.58 227.09,-262.47"/>
</g>
<!-- instance/current/input -->
<g id="node7" class="node">
<title>instance/current/input</title>
<ellipse fill="none" stroke="black" cx="295.1" cy="-666" rx="87.18" ry="18"/>
<text text-anchor="middle" x="295.1" y="-662.3" font-family="Times,serif" font-size="14.00">instance/current/input</text>
</g>
<!-- instance/current/task/delete -->
<g id="node8" class="node">
<title>instance/current/task/delete</title>
<ellipse fill="none" stroke="black" cx="295.1" cy="-594" rx="106.68" ry="18"/>
<text text-anchor="middle" x="295.1" y="-590.3" font-family="Times,serif" font-size="14.00">instance/current/task/delete</text>
</g>
<!-- instance/current/input&#45;&gt;instance/current/task/delete -->
<g id="edge7" class="edge">
<title>instance/current/input&#45;&gt;instance/current/task/delete</title>
<path fill="none" stroke="green" d="M295.1,-647.7C295.1,-639.98 295.1,-630.71 295.1,-622.11"/>
<polygon fill="green" stroke="green" points="298.6,-622.1 295.1,-612.1 291.6,-622.1 298.6,-622.1"/>
</g>
<!-- instance/current/task/delete&#45;&gt;security_group/current/input -->
<g id="edge9" class="edge">
<title>instance/current/task/delete&#45;&gt;security_group/current/input</title>
<path fill="none" stroke="green" d="M278.39,-576.05C269.96,-567.5 259.57,-556.96 250.28,-547.54"/>
<polygon fill="green" stroke="green" points="252.64,-544.94 243.12,-540.28 247.65,-549.85 252.64,-544.94"/>
</g>
<!-- instance/current/task/delete&#45;&gt;instance/config/input -->
<g id="edge8" class="edge">
<title>instance/current/task/delete&#45;&gt;instance/config/input</title>
<path fill="none" stroke="green" d="M315.29,-576.09C325.73,-566.44 337.95,-553.58 346.1,-540 367.51,-504.33 375.1,-492.6 375.1,-451 375.1,-451 375.1,-451 375.1,-305 375.1,-263.66 375.55,-246.91 348.1,-216 333.04,-199.05 311.57,-187.29 290.88,-179.23"/>
<polygon fill="green" stroke="green" points="292.05,-175.93 281.46,-175.79 289.65,-182.51 292.05,-175.93"/>
</g>
<!-- instance/config/task/create -->
<g id="node11" class="node">
<title>instance/config/task/create</title>
<ellipse fill="none" stroke="black" cx="227.1" cy="-90" rx="103.98" ry="18"/>
<text text-anchor="middle" x="227.1" y="-86.3" font-family="Times,serif" font-size="14.00">instance/config/task/create</text>
</g>
<!-- instance/config/input&#45;&gt;instance/config/task/create -->
<g id="edge10" class="edge">
<title>instance/config/input&#45;&gt;instance/config/task/create</title>
<path fill="none" stroke="green" d="M227.1,-143.7C227.1,-135.98 227.1,-126.71 227.1,-118.11"/>
<polygon fill="green" stroke="green" points="230.6,-118.1 227.1,-108.1 223.6,-118.1 230.6,-118.1"/>
</g>
<!-- instance/config/output -->
<g id="node10" class="node">
<title>instance/config/output</title>
<ellipse fill="none" stroke="black" cx="227.1" cy="-18" rx="89.08" ry="18"/>
<text text-anchor="middle" x="227.1" y="-14.3" font-family="Times,serif" font-size="14.00">instance/config/output</text>
</g>
<!-- instance/config/task/create&#45;&gt;instance/config/output -->
<g id="edge11" class="edge">
<title>instance/config/task/create&#45;&gt;instance/config/output</title>
<path fill="none" stroke="green" d="M227.1,-71.7C227.1,-63.98 227.1,-54.71 227.1,-46.11"/>
<polygon fill="green" stroke="green" points="230.6,-46.1 227.1,-36.1 223.6,-46.1 230.6,-46.1"/>
</g>
</g>
</svg>
