<?xml version="1.0" encoding="UTF-8" standalone="no"?>
<!DOCTYPE svg PUBLIC "-//W3C//DTD SVG 1.1//EN"
 "http://www.w3.org/Graphics/SVG/1.1/DTD/svg11.dtd">
<!-- Generated by graphviz version 2.44.1 (20200629.0846)
 -->
<!-- Pages: 1 -->
<svg width="332pt" height="548pt"
 viewBox="0.00 0.00 331.54 548.00" xmlns="http://www.w3.org/2000/svg" xmlns:xlink="http://www.w3.org/1999/xlink">
<g id="graph0" class="graph" transform="scale(1 1) rotate(0) translate(4 544)">
<polygon fill="white" stroke="transparent" points="-4,4 -4,-544 327.54,-544 327.54,4 -4,4"/>
<!-- security_group/input -->
<g id="node1" class="node">
<title>security_group/input</title>
<ellipse fill="none" stroke="black" cx="129.1" cy="-90" rx="83.69" ry="18"/>
<text text-anchor="middle" x="129.1" y="-86.3" font-family="Times,serif" font-size="14.00">security_group/input</text>
</g>
<!-- security_group/task/delete -->
<g id="node2" class="node">
<title>security_group/task/delete</title>
<ellipse fill="none" stroke="black" cx="129.1" cy="-18" rx="103.18" ry="18"/>
<text text-anchor="middle" x="129.1" y="-14.3" font-family="Times,serif" font-size="14.00">security_group/task/delete</text>
</g>
<!-- security_group/input&#45;&gt;security_group/task/delete -->
<g id="edge1" class="edge">
<title>security_group/input&#45;&gt;security_group/task/delete</title>
<path fill="none" stroke="green" d="M129.1,-71.7C129.1,-63.98 129.1,-54.71 129.1,-46.11"/>
<polygon fill="green" stroke="green" points="132.6,-46.1 129.1,-36.1 125.6,-46.1 132.6,-46.1"/>
</g>
<!-- key/output -->
<g id="node3" class="node">
<title>key/output</title>
<ellipse fill="none" stroke="black" cx="48.1" cy="-378" rx="48.19" ry="18"/>
<text text-anchor="middle" x="48.1" y="-374.3" font-family="Times,serif" font-size="14.00">key/output</text>
</g>
<!-- instance/input -->
<g id="node7" class="node">
<title>instance/input</title>
<ellipse fill="none" stroke="black" cx="129.1" cy="-306" rx="59.59" ry="18"/>
<text text-anchor="middle" x="129.1" y="-302.3" font-family="Times,serif" font-size="14.00">instance/input</text>
</g>
<!-- key/output&#45;&gt;instance/input -->
<g id="edge2" class="edge">
<title>key/output&#45;&gt;instance/input</title>
<path fill="none" stroke="green" d="M66.48,-361.12C77.09,-351.94 90.64,-340.23 102.42,-330.06"/>
<polygon fill="green" stroke="green" points="104.95,-332.49 110.23,-323.31 100.37,-327.2 104.95,-332.49"/>
</g>
<!-- security_group_2/input -->
<g id="node4" class="node">
<title>security_group_2/input</title>
<ellipse fill="none" stroke="black" cx="211.1" cy="-522" rx="92.88" ry="18"/>
<text text-anchor="middle" x="211.1" y="-518.3" font-family="Times,serif" font-size="14.00">security_group_2/input</text>
</g>
<!-- security_group_2/task/create -->
<g id="node6" class="node">
<title>security_group_2/task/create</title>
<ellipse fill="none" stroke="black" cx="211.1" cy="-450" rx="112.38" ry="18"/>
<text text-anchor="middle" x="211.1" y="-446.3" font-family="Times,serif" font-size="14.00">security_group_2/task/create</text>
</g>
<!-- security_group_2/input&#45;&gt;security_group_2/task/create -->
<g id="edge3" class="edge">
<title>security_group_2/input&#45;&gt;security_group_2/task/create</title>
<path fill="none" stroke="green" d="M211.1,-503.7C211.1,-495.98 211.1,-486.71 211.1,-478.11"/>
<polygon fill="green" stroke="green" points="214.6,-478.1 211.1,-468.1 207.6,-478.1 214.6,-478.1"/>
</g>
<!-- security_group_2/output -->
<g id="node5" class="node">
<title>security_group_2/output</title>
<ellipse fill="none" stroke="black" cx="211.1" cy="-378" rx="96.68" ry="18"/>
<text text-anchor="middle" x="211.1" y="-374.3" font-family="Times,serif" font-size="14.00">security_group_2/output</text>
</g>
<!-- security_group_2/output&#45;&gt;instance/input -->
<g id="edge4" class="edge">
<title>security_group_2/output&#45;&gt;instance/input</title>
<path fill="none" stroke="green" d="M191.25,-360.05C180.62,-350.98 167.38,-339.68 155.85,-329.84"/>
<polygon fill="green" stroke="green" points="158.08,-327.14 148.2,-323.31 153.53,-332.46 158.08,-327.14"/>
</g>
<!-- security_group_2/task/create&#45;&gt;security_group_2/output -->
<g id="edge5" class="edge">
<title>security_group_2/task/create&#45;&gt;security_group_2/output</title>
<path fill="none" stroke="green" d="M211.1,-431.7C211.1,-423.98 211.1,-414.71 211.1,-406.11"/>
<polygon fill="green" stroke="green" points="214.6,-406.1 211.1,-396.1 207.6,-406.1 214.6,-406.1"/>
</g>
<!-- instance/task/modify -->
<g id="node9" class="node">
<title>instance/task/modify</title>
<ellipse fill="none" stroke="black" cx="129.1" cy="-234" rx="84.49" ry="18"/>
<text text-anchor="middle" x="129.1" y="-230.3" font-family="Times,serif" font-size="14.00">instance/task/modify</text>
</g>
<!-- instance/input&#45;&gt;instance/task/modify -->
<g id="edge6" class="edge">
<title>instance/input&#45;&gt;instance/task/modify</title>
<path fill="none" stroke="green" d="M129.1,-287.7C129.1,-279.98 129.1,-270.71 129.1,-262.11"/>
<polygon fill="green" stroke="green" points="132.6,-262.1 129.1,-252.1 125.6,-262.1 132.6,-262.1"/>
</g>
<!-- instance/output -->
<g id="node8" class="node">
<title>instance/output</title>
<ellipse fill="none" stroke="black" cx="129.1" cy="-162" rx="64.19" ry="18"/>
<text text-anchor="middle" x="129.1" y="-158.3" font-family="Times,serif" font-size="14.00">instance/output</text>
</g>
<!-- instance/output&#45;&gt;security_group/input -->
<g id="edge7" class="edge">
<title>instance/output&#45;&gt;security_group/input</title>
<path fill="none" stroke="#eec900" d="M129.1,-143.7C129.1,-135.98 129.1,-126.71 129.1,-118.11"/>
<polygon fill="#eec900" stroke="#eec900" points="132.6,-118.1 129.1,-108.1 125.6,-118.1 132.6,-118.1"/>
</g>
<!-- instance/task/modify&#45;&gt;instance/output -->
<g id="edge8" class="edge">
<title>instance/task/modify&#45;&gt;instance/output</title>
<path fill="none" stroke="green" d="M129.1,-215.7C129.1,-207.98 129.1,-198.71 129.1,-190.11"/>
<polygon fill="green" stroke="green" points="132.6,-190.1 129.1,-180.1 125.6,-190.1 132.6,-190.1"/>
</g>
</g>
</svg>
