<?xml version="1.0" encoding="UTF-8" standalone="no"?>
<!DOCTYPE svg PUBLIC "-//W3C//DTD SVG 1.1//EN"
 "http://www.w3.org/Graphics/SVG/1.1/DTD/svg11.dtd">
<!-- Generated by graphviz version 2.44.1 (20200629.0846)
 -->
<!-- Pages: 1 -->
<svg width="360pt" height="404pt"
 viewBox="0.00 0.00 360.04 404.00" xmlns="http://www.w3.org/2000/svg" xmlns:xlink="http://www.w3.org/1999/xlink">
<g id="graph0" class="graph" transform="scale(1 1) rotate(0) translate(4 400)">
<polygon fill="white" stroke="transparent" points="-4,4 -4,-400 356.04,-400 356.04,4 -4,4"/>
<!-- key/input -->
<g id="node1" class="node">
<title>key/input</title>
<ellipse fill="none" stroke="black" cx="63.69" cy="-378" rx="44.39" ry="18"/>
<text text-anchor="middle" x="63.69" y="-374.3" font-family="Times,serif" font-size="14.00">key/input</text>
</g>
<!-- key/task/create -->
<g id="node3" class="node">
<title>key/task/create</title>
<ellipse fill="none" stroke="black" cx="63.69" cy="-306" rx="63.89" ry="18"/>
<text text-anchor="middle" x="63.69" y="-302.3" font-family="Times,serif" font-size="14.00">key/task/create</text>
</g>
<!-- key/input&#45;&gt;key/task/create -->
<g id="edge1" class="edge">
<title>key/input&#45;&gt;key/task/create</title>
<path fill="none" stroke="green" d="M63.69,-359.7C63.69,-351.98 63.69,-342.71 63.69,-334.11"/>
<polygon fill="green" stroke="green" points="67.19,-334.1 63.69,-324.1 60.19,-334.1 67.19,-334.1"/>
</g>
<!-- key/output -->
<g id="node2" class="node">
<title>key/output</title>
<ellipse fill="none" stroke="black" cx="78.69" cy="-234" rx="48.19" ry="18"/>
<text text-anchor="middle" x="78.69" y="-230.3" font-family="Times,serif" font-size="14.00">key/output</text>
</g>
<!-- instance/input -->
<g id="node7" class="node">
<title>instance/input</title>
<ellipse fill="none" stroke="black" cx="155.69" cy="-162" rx="59.59" ry="18"/>
<text text-anchor="middle" x="155.69" y="-158.3" font-family="Times,serif" font-size="14.00">instance/input</text>
</g>
<!-- key/output&#45;&gt;instance/input -->
<g id="edge2" class="edge">
<title>key/output&#45;&gt;instance/input</title>
<path fill="none" stroke="green" d="M96.17,-217.12C106.26,-207.94 119.14,-196.23 130.33,-186.06"/>
<polygon fill="green" stroke="green" points="132.71,-188.62 137.76,-179.31 128,-183.44 132.71,-188.62"/>
</g>
<!-- key/task/create&#45;&gt;key/output -->
<g id="edge3" class="edge">
<title>key/task/create&#45;&gt;key/output</title>
<path fill="none" stroke="green" d="M67.4,-287.7C69.06,-279.98 71.04,-270.71 72.88,-262.11"/>
<polygon fill="green" stroke="green" points="76.36,-262.62 75.03,-252.1 69.51,-261.15 76.36,-262.62"/>
</g>
<!-- security_group/input -->
<g id="node4" class="node">
<title>security_group/input</title>
<ellipse fill="none" stroke="black" cx="248.69" cy="-378" rx="83.69" ry="18"/>
<text text-anchor="middle" x="248.69" y="-374.3" font-family="Times,serif" font-size="14.00">security_group/input</text>
</g>
<!-- security_group/task/create -->
<g id="node6" class="node">
<title>security_group/task/create</title>
<ellipse fill="none" stroke="black" cx="248.69" cy="-306" rx="103.18" ry="18"/>
<text text-anchor="middle" x="248.69" y="-302.3" font-family="Times,serif" font-size="14.00">security_group/task/create</text>
</g>
<!-- security_group/input&#45;&gt;security_group/task/create -->
<g id="edge4" class="edge">
<title>security_group/input&#45;&gt;security_group/task/create</title>
<path fill="none" stroke="green" d="M248.69,-359.7C248.69,-351.98 248.69,-342.71 248.69,-334.11"/>
<polygon fill="green" stroke="green" points="252.19,-334.1 248.69,-324.1 245.19,-334.1 252.19,-334.1"/>
</g>
<!-- security_group/output -->
<g id="node5" class="node">
<title>security_group/output</title>
<ellipse fill="none" stroke="black" cx="240.69" cy="-234" rx="88.28" ry="18"/>
<text text-anchor="middle" x="240.69" y="-230.3" font-family="Times,serif" font-size="14.00">security_group/output</text>
</g>
<!-- security_group/output&#45;&gt;instance/input -->
<g id="edge5" class="edge">
<title>security_group/output&#45;&gt;instance/input</title>
<path fill="none" stroke="green" d="M220.55,-216.41C209.46,-207.28 195.53,-195.81 183.43,-185.84"/>
<polygon fill="green" stroke="green" points="185.34,-182.88 175.4,-179.23 180.89,-188.29 185.34,-182.88"/>
</g>
<!-- security_group/task/create&#45;&gt;security_group/output -->
<g id="edge6" class="edge">
<title>security_group/task/create&#45;&gt;security_group/output</title>
<path fill="none" stroke="green" d="M246.72,-287.7C245.84,-279.98 244.78,-270.71 243.79,-262.11"/>
<polygon fill="green" stroke="green" points="247.26,-261.64 242.65,-252.1 240.31,-262.44 247.26,-261.64"/>
</g>
<!-- instance/task/create -->
<g id="node9" class="node">
<title>instance/task/create</title>
<ellipse fill="none" stroke="black" cx="155.69" cy="-90" rx="79.09" ry="18"/>
<text text-anchor="middle" x="155.69" y="-86.3" font-family="Times,serif" font-size="14.00">instance/task/create</text>
</g>
<!-- instance/input&#45;&gt;instance/task/create -->
<g id="edge7" class="edge">
<title>instance/input&#45;&gt;instance/task/create</title>
<path fill="none" stroke="green" d="M155.69,-143.7C155.69,-135.98 155.69,-126.71 155.69,-118.11"/>
<polygon fill="green" stroke="green" points="159.19,-118.1 155.69,-108.1 152.19,-118.1 159.19,-118.1"/>
</g>
<!-- instance/output -->
<g id="node8" class="node">
<title>instance/output</title>
<ellipse fill="none" stroke="black" cx="155.69" cy="-18" rx="64.19" ry="18"/>
<text text-anchor="middle" x="155.69" y="-14.3" font-family="Times,serif" font-size="14.00">instance/output</text>
</g>
<!-- instance/task/create&#45;&gt;instance/output -->
<g id="edge8" class="edge">
<title>instance/task/create&#45;&gt;instance/output</title>
<path fill="none" stroke="green" d="M155.69,-71.7C155.69,-63.98 155.69,-54.71 155.69,-46.11"/>
<polygon fill="green" stroke="green" points="159.19,-46.1 155.69,-36.1 152.19,-46.1 159.19,-46.1"/>
</g>
</g>
</svg>
