<?xml version="1.0" encoding="UTF-8" standalone="no"?>
<!DOCTYPE svg PUBLIC "-//W3C//DTD SVG 1.1//EN"
 "http://www.w3.org/Graphics/SVG/1.1/DTD/svg11.dtd">
<!-- Generated by graphviz version 2.44.1 (20200629.0846)
 -->
<!-- Pages: 1 -->
<svg width="360pt" height="260pt"
 viewBox="0.00 0.00 360.04 260.00" xmlns="http://www.w3.org/2000/svg" xmlns:xlink="http://www.w3.org/1999/xlink">
<g id="graph0" class="graph" transform="scale(1 1) rotate(0) translate(4 256)">
<polygon fill="white" stroke="transparent" points="-4,4 -4,-256 356.04,-256 356.04,4 -4,4"/>
<!-- instance/input -->
<g id="node1" class="node">
<title>instance/input</title>
<ellipse fill="none" stroke="black" cx="195.34" cy="-234" rx="59.59" ry="18"/>
<text text-anchor="middle" x="195.34" y="-230.3" font-family="Times,serif" font-size="14.00">instance/input</text>
</g>
<!-- instance/task/delete -->
<g id="node2" class="node">
<title>instance/task/delete</title>
<ellipse fill="none" stroke="black" cx="195.34" cy="-162" rx="79.09" ry="18"/>
<text text-anchor="middle" x="195.34" y="-158.3" font-family="Times,serif" font-size="14.00">instance/task/delete</text>
</g>
<!-- instance/input&#45;&gt;instance/task/delete -->
<g id="edge1" class="edge">
<title>instance/input&#45;&gt;instance/task/delete</title>
<path fill="none" stroke="green" d="M195.34,-215.7C195.34,-207.98 195.34,-198.71 195.34,-190.11"/>
<polygon fill="green" stroke="green" points="198.84,-190.1 195.34,-180.1 191.84,-190.1 198.84,-190.1"/>
</g>
<!-- security_group/input -->
<g id="node3" class="node">
<title>security_group/input</title>
<ellipse fill="none" stroke="black" cx="113.34" cy="-90" rx="83.69" ry="18"/>
<text text-anchor="middle" x="113.34" y="-86.3" font-family="Times,serif" font-size="14.00">security_group/input</text>
</g>
<!-- instance/task/delete&#45;&gt;security_group/input -->
<g id="edge3" class="edge">
<title>instance/task/delete&#45;&gt;security_group/input</title>
<path fill="none" stroke="green" d="M175.91,-144.41C165.36,-135.41 152.16,-124.14 140.6,-114.27"/>
<polygon fill="green" stroke="green" points="142.8,-111.54 132.92,-107.71 138.25,-116.87 142.8,-111.54"/>
</g>
<!-- key/input -->
<g id="node5" class="node">
<title>key/input</title>
<ellipse fill="none" stroke="black" cx="278.34" cy="-90" rx="44.39" ry="18"/>
<text text-anchor="middle" x="278.34" y="-86.3" font-family="Times,serif" font-size="14.00">key/input</text>
</g>
<!-- instance/task/delete&#45;&gt;key/input -->
<g id="edge2" class="edge">
<title>instance/task/delete&#45;&gt;key/input</title>
<path fill="none" stroke="green" d="M215.01,-144.41C226.07,-135.08 240.03,-123.31 252.02,-113.2"/>
<polygon fill="green" stroke="green" points="254.56,-115.63 259.95,-106.51 250.05,-110.28 254.56,-115.63"/>
</g>
<!-- security_group/task/delete -->
<g id="node4" class="node">
<title>security_group/task/delete</title>
<ellipse fill="none" stroke="black" cx="103.34" cy="-18" rx="103.18" ry="18"/>
<text text-anchor="middle" x="103.34" y="-14.3" font-family="Times,serif" font-size="14.00">security_group/task/delete</text>
</g>
<!-- security_group/input&#45;&gt;security_group/task/delete -->
<g id="edge4" class="edge">
<title>security_group/input&#45;&gt;security_group/task/delete</title>
<path fill="none" stroke="green" d="M110.87,-71.7C109.77,-63.98 108.44,-54.71 107.21,-46.11"/>
<polygon fill="green" stroke="green" points="110.66,-45.51 105.78,-36.1 103.73,-46.5 110.66,-45.51"/>
</g>
<!-- key/task/delete -->
<g id="node6" class="node">
<title>key/task/delete</title>
<ellipse fill="none" stroke="black" cx="288.34" cy="-18" rx="63.89" ry="18"/>
<text text-anchor="middle" x="288.34" y="-14.3" font-family="Times,serif" font-size="14.00">key/task/delete</text>
</g>
<!-- key/input&#45;&gt;key/task/delete -->
<g id="edge5" class="edge">
<title>key/input&#45;&gt;key/task/delete</title>
<path fill="none" stroke="green" d="M280.81,-71.7C281.91,-63.98 283.24,-54.71 284.47,-46.11"/>
<polygon fill="green" stroke="green" points="287.95,-46.5 285.9,-36.1 281.02,-45.51 287.95,-46.5"/>
</g>
</g>
</svg>
