<?xml version="1.0" encoding="UTF-8" standalone="no"?>
<!DOCTYPE svg PUBLIC "-//W3C//DTD SVG 1.1//EN"
 "http://www.w3.org/Graphics/SVG/1.1/DTD/svg11.dtd">
<!-- Generated by graphviz version 2.44.1 (20200629.0846)
 -->
<!-- Pages: 1 -->
<svg width="386pt" height="548pt"
 viewBox="0.00 0.00 385.92 548.00" xmlns="http://www.w3.org/2000/svg" xmlns:xlink="http://www.w3.org/1999/xlink">
<g id="graph0" class="graph" transform="scale(1 1) rotate(0) translate(4 544)">
<polygon fill="white" stroke="transparent" points="-4,4 -4,-544 381.92,-544 381.92,4 -4,4"/>
<!-- key/output -->
<g id="node1" class="node">
<title>key/output</title>
<ellipse fill="none" stroke="black" cx="48.1" cy="-234" rx="48.19" ry="18"/>
<text text-anchor="middle" x="48.1" y="-230.3" font-family="Times,serif" font-size="14.00">key/output</text>
</g>
<!-- instance/input -->
<g id="node7" class="node">
<title>instance/input</title>
<ellipse fill="none" stroke="black" cx="137.1" cy="-162" rx="59.59" ry="18"/>
<text text-anchor="middle" x="137.1" y="-158.3" font-family="Times,serif" font-size="14.00">instance/input</text>
</g>
<!-- key/output&#45;&gt;instance/input -->
<g id="edge1" class="edge">
<title>key/output&#45;&gt;instance/input</title>
<path fill="none" stroke="green" d="M67.85,-217.46C79.89,-207.99 95.48,-195.73 108.82,-185.24"/>
<polygon fill="green" stroke="green" points="111.09,-187.91 116.78,-178.98 106.76,-182.41 111.09,-187.91"/>
</g>
<!-- security_group/current/input -->
<g id="node2" class="node">
<title>security_group/current/input</title>
<ellipse fill="none" stroke="black" cx="227.1" cy="-522" rx="111.28" ry="18"/>
<text text-anchor="middle" x="227.1" y="-518.3" font-family="Times,serif" font-size="14.00">security_group/current/input</text>
</g>
<!-- security_group/current/task/delete -->
<g id="node3" class="node">
<title>security_group/current/task/delete</title>
<ellipse fill="none" stroke="black" cx="227.1" cy="-450" rx="130.78" ry="18"/>
<text text-anchor="middle" x="227.1" y="-446.3" font-family="Times,serif" font-size="14.00">security_group/current/task/delete</text>
</g>
<!-- security_group/current/input&#45;&gt;security_group/current/task/delete -->
<g id="edge2" class="edge">
<title>security_group/current/input&#45;&gt;security_group/current/task/delete</title>
<path fill="none" stroke="green" d="M227.1,-503.7C227.1,-495.98 227.1,-486.71 227.1,-478.11"/>
<polygon fill="green" stroke="green" points="230.6,-478.1 227.1,-468.1 223.6,-478.1 230.6,-478.1"/>
</g>
<!-- security_group/config/input -->
<g id="node4" class="node">
<title>security_group/config/input</title>
<ellipse fill="none" stroke="black" cx="227.1" cy="-378" rx="108.58" ry="18"/>
<text text-anchor="middle" x="227.1" y="-374.3" font-family="Times,serif" font-size="14.00">security_group/config/input</text>
</g>
<!-- security_group/current/task/delete&#45;&gt;security_group/config/input -->
<g id="edge3" class="edge">
<title>security_group/current/task/delete&#45;&gt;security_group/config/input</title>
<path fill="none" stroke="green" d="M227.1,-431.7C227.1,-423.98 227.1,-414.71 227.1,-406.11"/>
<polygon fill="green" stroke="green" points="230.6,-406.1 227.1,-396.1 223.6,-406.1 230.6,-406.1"/>
</g>
<!-- security_group/config/task/create -->
<g id="node6" class="node">
<title>security_group/config/task/create</title>
<ellipse fill="none" stroke="black" cx="227.1" cy="-306" rx="128.08" ry="18"/>
<text text-anchor="middle" x="227.1" y="-302.3" font-family="Times,serif" font-size="14.00">security_group/config/task/create</text>
</g>
<!-- security_group/config/input&#45;&gt;security_group/config/task/create -->
<g id="edge4" class="edge">
<title>security_group/config/input&#45;&gt;security_group/config/task/create</title>
<path fill="none" stroke="green" d="M227.1,-359.7C227.1,-351.98 227.1,-342.71 227.1,-334.11"/>
<polygon fill="green" stroke="green" points="230.6,-334.1 227.1,-324.1 223.6,-334.1 230.6,-334.1"/>
</g>
<!-- security_group/config/output -->
<g id="node5" class="node">
<title>security_group/config/output</title>
<ellipse fill="none" stroke="black" cx="227.1" cy="-234" rx="112.38" ry="18"/>
<text text-anchor="middle" x="227.1" y="-230.3" font-family="Times,serif" font-size="14.00">security_group/config/output</text>
</g>
<!-- security_group/config/output&#45;&gt;instance/input -->
<g id="edge5" class="edge">
<title>security_group/config/output&#45;&gt;instance/input</title>
<path fill="none" stroke="green" d="M205.31,-216.05C193.45,-206.83 178.62,-195.29 165.82,-185.34"/>
<polygon fill="green" stroke="green" points="167.8,-182.44 157.75,-179.07 163.5,-187.97 167.8,-182.44"/>
</g>
<!-- security_group/config/task/create&#45;&gt;security_group/config/output -->
<g id="edge6" class="edge">
<title>security_group/config/task/create&#45;&gt;security_group/config/output</title>
<path fill="none" stroke="green" d="M227.1,-287.7C227.1,-279.98 227.1,-270.71 227.1,-262.11"/>
<polygon fill="green" stroke="green" points="230.6,-262.1 227.1,-252.1 223.6,-262.1 230.6,-262.1"/>
</g>
<!-- instance/task/modify -->
<g id="node9" class="node">
<title>instance/task/modify</title>
<ellipse fill="none" stroke="black" cx="137.1" cy="-90" rx="84.49" ry="18"/>
<text text-anchor="middle" x="137.1" y="-86.3" font-family="Times,serif" font-size="14.00">instance/task/modify</text>
</g>
<!-- instance/input&#45;&gt;instance/task/modify -->
<g id="edge7" class="edge">
<title>instance/input&#45;&gt;instance/task/modify</title>
<path fill="none" stroke="green" d="M137.1,-143.7C137.1,-135.98 137.1,-126.71 137.1,-118.11"/>
<polygon fill="green" stroke="green" points="140.6,-118.1 137.1,-108.1 133.6,-118.1 140.6,-118.1"/>
</g>
<!-- instance/output -->
<g id="node8" class="node">
<title>instance/output</title>
<ellipse fill="none" stroke="black" cx="137.1" cy="-18" rx="64.19" ry="18"/>
<text text-anchor="middle" x="137.1" y="-14.3" font-family="Times,serif" font-size="14.00">instance/output</text>
</g>
<!-- instance/output&#45;&gt;security_group/current/input -->
<g id="edge8" class="edge">
<title>instance/output&#45;&gt;security_group/current/input</title>
<path fill="none" stroke="red" d="M169.53,-33.77C188.31,-43.2 211.78,-56.54 230.1,-72 316.42,-144.88 350.6,-175.84 364.1,-288 388.06,-487.18 374.17,-457.76 367.1,-468 354.67,-485.99 335.3,-497.88 314.88,-505.73"/>
<polygon fill="red" stroke="red" points="313.71,-502.43 305.45,-509.07 316.04,-509.03 313.71,-502.43"/>
</g>
<!-- instance/task/modify&#45;&gt;instance/output -->
<g id="edge9" class="edge">
<title>instance/task/modify&#45;&gt;instance/output</title>
<path fill="none" stroke="green" d="M137.1,-71.7C137.1,-63.98 137.1,-54.71 137.1,-46.11"/>
<polygon fill="green" stroke="green" points="140.6,-46.1 137.1,-36.1 133.6,-46.1 140.6,-46.1"/>
</g>
</g>
</svg>
