<?xml version="1.0" encoding="UTF-8" standalone="no"?>
<!DOCTYPE svg PUBLIC "-//W3C//DTD SVG 1.1//EN"
 "http://www.w3.org/Graphics/SVG/1.1/DTD/svg11.dtd">
<!-- Generated by graphviz version 2.44.1 (20200629.0846)
 -->
<!-- Pages: 1 -->
<svg width="269pt" height="620pt"
 viewBox="0.00 0.00 269.28 620.00" xmlns="http://www.w3.org/2000/svg" xmlns:xlink="http://www.w3.org/1999/xlink">
<g id="graph0" class="graph" transform="scale(1 1) rotate(0) translate(4 616)">
<polygon fill="white" stroke="transparent" points="-4,4 -4,-616 265.28,-616 265.28,4 -4,4"/>
<!-- key/output -->
<g id="node1" class="node">
<title>key/output</title>
<ellipse fill="none" stroke="black" cx="130.64" cy="-594" rx="48.19" ry="18"/>
<text text-anchor="middle" x="130.64" y="-590.3" font-family="Times,serif" font-size="14.00">key/output</text>
</g>
<!-- instance/input -->
<g id="node7" class="node">
<title>instance/input</title>
<ellipse fill="none" stroke="black" cx="130.64" cy="-522" rx="59.59" ry="18"/>
<text text-anchor="middle" x="130.64" y="-518.3" font-family="Times,serif" font-size="14.00">instance/input</text>
</g>
<!-- key/output&#45;&gt;instance/input -->
<g id="edge1" class="edge">
<title>key/output&#45;&gt;instance/input</title>
<path fill="none" stroke="green" d="M130.64,-575.7C130.64,-567.98 130.64,-558.71 130.64,-550.11"/>
<polygon fill="green" stroke="green" points="134.14,-550.1 130.64,-540.1 127.14,-550.1 134.14,-550.1"/>
</g>
<!-- security_group/current/input -->
<g id="node2" class="node">
<title>security_group/current/input</title>
<ellipse fill="none" stroke="black" cx="130.64" cy="-306" rx="111.28" ry="18"/>
<text text-anchor="middle" x="130.64" y="-302.3" font-family="Times,serif" font-size="14.00">security_group/current/input</text>
</g>
<!-- security_group/current/task/delete -->
<g id="node3" class="node">
<title>security_group/current/task/delete</title>
<ellipse fill="none" stroke="black" cx="130.64" cy="-234" rx="130.78" ry="18"/>
<text text-anchor="middle" x="130.64" y="-230.3" font-family="Times,serif" font-size="14.00">security_group/current/task/delete</text>
</g>
<!-- security_group/current/input&#45;&gt;security_group/current/task/delete -->
<g id="edge2" class="edge">
<title>security_group/current/input&#45;&gt;security_group/current/task/delete</title>
<path fill="none" stroke="green" d="M130.64,-287.7C130.64,-279.98 130.64,-270.71 130.64,-262.11"/>
<polygon fill="green" stroke="green" points="134.14,-262.1 130.64,-252.1 127.14,-262.1 134.14,-262.1"/>
</g>
<!-- security_group/config/input -->
<g id="node4" class="node">
<title>security_group/config/input</title>
<ellipse fill="none" stroke="black" cx="130.64" cy="-162" rx="108.58" ry="18"/>
<text text-anchor="middle" x="130.64" y="-158.3" font-family="Times,serif" font-size="14.00">security_group/config/input</text>
</g>
<!-- security_group/current/task/delete&#45;&gt;security_group/config/input -->
<g id="edge3" class="edge">
<title>security_group/current/task/delete&#45;&gt;security_group/config/input</title>
<path fill="none" stroke="green" d="M130.64,-215.7C130.64,-207.98 130.64,-198.71 130.64,-190.11"/>
<polygon fill="green" stroke="green" points="134.14,-190.1 130.64,-180.1 127.14,-190.1 134.14,-190.1"/>
</g>
<!-- security_group/config/task/create -->
<g id="node6" class="node">
<title>security_group/config/task/create</title>
<ellipse fill="none" stroke="black" cx="130.64" cy="-90" rx="128.08" ry="18"/>
<text text-anchor="middle" x="130.64" y="-86.3" font-family="Times,serif" font-size="14.00">security_group/config/task/create</text>
</g>
<!-- security_group/config/input&#45;&gt;security_group/config/task/create -->
<g id="edge4" class="edge">
<title>security_group/config/input&#45;&gt;security_group/config/task/create</title>
<path fill="none" stroke="green" d="M130.64,-143.7C130.64,-135.98 130.64,-126.71 130.64,-118.11"/>
<polygon fill="green" stroke="green" points="134.14,-118.1 130.64,-108.1 127.14,-118.1 134.14,-118.1"/>
</g>
<!-- security_group/config/output -->
<g id="node5" class="node">
<title>security_group/config/output</title>
<ellipse fill="none" stroke="black" cx="130.64" cy="-18" rx="112.38" ry="18"/>
<text text-anchor="middle" x="130.64" y="-14.3" font-family="Times,serif" font-size="14.00">security_group/config/output</text>
</g>
<!-- security_group/config/task/create&#45;&gt;security_group/config/output -->
<g id="edge5" class="edge">
<title>security_group/config/task/create&#45;&gt;security_group/config/output</title>
<path fill="none" stroke="green" d="M130.64,-71.7C130.64,-63.98 130.64,-54.71 130.64,-46.11"/>
<polygon fill="green" stroke="green" points="134.14,-46.1 130.64,-36.1 127.14,-46.1 134.14,-46.1"/>
</g>
<!-- instance/task/modify -->
<g id="node9" class="node">
<title>instance/task/modify</title>
<ellipse fill="none" stroke="black" cx="130.64" cy="-450" rx="84.49" ry="18"/>
<text text-anchor="middle" x="130.64" y="-446.3" font-family="Times,serif" font-size="14.00">instance/task/modify</text>
</g>
<!-- instance/input&#45;&gt;instance/task/modify -->
<g id="edge6" class="edge">
<title>instance/input&#45;&gt;instance/task/modify</title>
<path fill="none" stroke="green" d="M130.64,-503.7C130.64,-495.98 130.64,-486.71 130.64,-478.11"/>
<polygon fill="green" stroke="green" points="134.14,-478.1 130.64,-468.1 127.14,-478.1 134.14,-478.1"/>
</g>
<!-- instance/output -->
<g id="node8" class="node">
<title>instance/output</title>
<ellipse fill="none" stroke="black" cx="130.64" cy="-378" rx="64.19" ry="18"/>
<text text-anchor="middle" x="130.64" y="-374.3" font-family="Times,serif" font-size="14.00">instance/output</text>
</g>
<!-- instance/output&#45;&gt;security_group/current/input -->
<g id="edge7" class="edge">
<title>instance/output&#45;&gt;security_group/current/input</title>
<path fill="none" stroke="#eec900" d="M130.64,-359.7C130.64,-351.98 130.64,-342.71 130.64,-334.11"/>
<polygon fill="#eec900" stroke="#eec900" points="134.14,-334.1 130.64,-324.1 127.14,-334.1 134.14,-334.1"/>
</g>
<!-- instance/task/modify&#45;&gt;instance/output -->
<g id="edge8" class="edge">
<title>instance/task/modify&#45;&gt;instance/output</title>
<path fill="none" stroke="green" d="M130.64,-431.7C130.64,-423.98 130.64,-414.71 130.64,-406.11"/>
<polygon fill="green" stroke="green" points="134.14,-406.1 130.64,-396.1 127.14,-406.1 134.14,-406.1"/>
</g>
</g>
</svg>
